<svg width="166" height="56" viewBox="0 0 166 56" fill="none" xmlns="http://www.w3.org/2000/svg">
<g clip-path="url(#clip0_34_94)">
<path d="M70.6692 15.0928C70.5028 15.1282 70.3459 15.199 70.2092 15.3002C70.1242 15.3816 70.0652 15.4864 70.0397 15.6013C69.9992 15.8216 69.9829 16.0457 69.9912 16.2696V21.8004C69.9876 22.0071 70.0006 22.2138 70.03 22.4184C70.045 22.5469 70.0996 22.6676 70.1863 22.7636C70.2657 22.8419 70.4267 22.9134 70.6692 22.9781V23.4001H67.3886V22.9781C67.5228 22.9461 67.6535 22.9009 67.7788 22.8431C67.8473 22.8085 67.9057 22.7568 67.9483 22.693C67.9966 22.6064 68.0266 22.5109 68.0366 22.4122C68.0595 22.205 68.0689 21.9965 68.0648 21.7881V18.6541C68.0648 18.3086 68.0713 17.9016 68.0843 17.4331C68.0966 16.9643 68.1099 16.6315 68.1222 16.4355H67.988C67.9368 16.6062 67.8827 16.7737 67.8256 16.9379C67.7685 17.1021 67.6614 17.3963 67.5042 17.8207L65.7889 22.4334H64.6651L62.8615 17.2477C62.7555 16.9537 62.6611 16.6615 62.5807 16.3711H62.4651C62.5086 17.0773 62.5301 17.9087 62.5295 18.8651V21.8066C62.5223 22.0271 62.5371 22.2477 62.5737 22.4652C62.6 22.5832 62.6616 22.6903 62.7502 22.7724C62.8883 22.8753 63.048 22.9453 63.2173 22.9773V23.3992H60.8027V22.9773C60.9326 22.9449 61.0582 22.8975 61.1771 22.836C61.2645 22.7891 61.3365 22.718 61.3845 22.6312C61.4366 22.5301 61.4667 22.419 61.4728 22.3054C61.4834 22.173 61.4887 22.0053 61.4887 21.8004V16.2696C61.4959 16.0469 61.482 15.824 61.4472 15.6039C61.4236 15.4917 61.3667 15.3892 61.2839 15.3099C61.2035 15.2331 61.0429 15.1607 60.8045 15.0928V14.6708H63.9827L65.7536 19.92L67.672 14.6708H70.6736L70.6692 15.0928Z" fill="#3DB5B6"/>
<path d="M79.0355 14.6708V16.7013H78.1597C78.019 16.2957 77.9013 16.0218 77.8066 15.8794C77.7141 15.7429 77.5938 15.6277 77.4535 15.5412C77.3175 15.4529 77.0844 15.4159 76.7569 15.4159H75.3594V18.4854H76.206C76.3574 18.4926 76.5083 18.4651 76.6474 18.4051C76.7603 18.3454 76.8526 18.2531 76.9123 18.1403C77.0042 17.958 77.0718 17.7645 77.1136 17.5647H77.8366V20.161H77.1136C77.0726 19.9646 77.0061 19.7744 76.9158 19.5952C76.8577 19.4795 76.7676 19.383 76.6563 19.3171C76.5156 19.2513 76.3611 19.221 76.206 19.2288H75.362V22.6435H76.749C76.8755 22.6452 77.0019 22.6357 77.1268 22.6153C77.2234 22.5982 77.3163 22.5644 77.4014 22.5155C77.4886 22.4639 77.5675 22.3993 77.6353 22.324C77.7095 22.2422 77.7758 22.1535 77.8331 22.0591C77.9031 21.9402 77.9641 21.8163 78.0158 21.6883C78.0975 21.4813 78.168 21.27 78.2268 21.0553H79.1026L78.9807 23.3895H72.6924V22.9675C72.8217 22.935 72.9471 22.8888 73.0667 22.8298C73.1545 22.7844 73.2261 22.7128 73.2715 22.625C73.3215 22.5206 73.3515 22.4077 73.3598 22.2922C73.3722 22.158 73.3783 21.9885 73.3783 21.7846V16.2819C73.3783 16.0815 73.373 15.9138 73.3624 15.7769C73.3575 15.6615 73.3292 15.5483 73.2795 15.4441C73.2324 15.3568 73.1613 15.2848 73.0746 15.2367C72.9546 15.1724 72.8267 15.124 72.6941 15.0928V14.6708H79.0355Z" fill="#3DB5B6"/>
<path d="M83.0478 23.3984C82.6258 23.3984 82.3368 23.5455 82.1808 23.8398C82.0249 24.134 81.8683 24.7544 81.7112 25.7008H80.8672V22.58H81.5514C82.2029 21.6677 82.727 20.5554 83.1237 19.2429C83.5204 17.9304 83.7187 16.8325 83.7187 15.9491C83.7187 15.6124 83.6599 15.3909 83.5421 15.2843C83.41 15.1703 83.244 15.103 83.0698 15.0928V14.6708H88.8303V15.0928C88.5319 15.1651 88.3332 15.2596 88.2326 15.377C88.1319 15.4944 88.0825 15.8255 88.0825 16.3711V22.58H89.1057V25.7008H88.2617C88.1169 24.8268 87.9666 24.2247 87.8106 23.8945C87.6546 23.5643 87.3554 23.3989 86.9128 23.3984H83.0478ZM86.1041 22.58V15.4291H84.7295C84.4694 18.4766 83.7926 20.8602 82.6991 22.58H86.1041Z" fill="#3DB5B6"/>
<path d="M98.7369 21.7934C98.7369 22.2236 98.7743 22.5102 98.8491 22.6533C98.9232 22.7963 99.1139 22.9031 99.415 22.9755V23.3984H96.077V22.9764C96.3842 22.904 96.5731 22.8051 96.6464 22.6797C96.7197 22.5544 96.755 22.2586 96.755 21.7969V19.2941C96.755 18.5396 96.7741 17.9661 96.8124 17.5735H96.7762L93.7366 21.7934C93.7366 22.2154 93.7761 22.4996 93.8549 22.6462C93.9338 22.7927 94.1245 22.9025 94.427 22.9755V23.3984H91.0723V22.9764C91.3662 22.904 91.5534 22.7998 91.6346 22.6541C91.7158 22.5085 91.7565 22.2242 91.7565 21.7943V16.2819C91.7565 15.8434 91.7179 15.5556 91.6408 15.4185C91.564 15.2826 91.376 15.174 91.0723 15.0928V14.6708H94.427V15.0928C94.1242 15.181 93.9335 15.2905 93.8549 15.4318C93.7764 15.573 93.7366 15.8582 93.7366 16.2881V19.1017C93.7366 19.6349 93.7216 20.0548 93.6916 20.3614H93.7304L96.755 16.1345C96.755 15.7772 96.7164 15.5333 96.6393 15.4026C96.5622 15.272 96.3748 15.1687 96.077 15.0928V14.6708H99.415V15.0928C99.1166 15.174 98.9285 15.2834 98.8526 15.422C98.7767 15.5607 98.7369 15.8493 98.7369 16.2881V21.7934Z" fill="#3DB5B6"/>
<path d="M108.813 22.5932H109.961V25.7069H109.111C108.961 24.7441 108.79 24.1185 108.596 23.8301C108.504 23.6908 108.378 23.5779 108.229 23.5023C108.081 23.4268 107.915 23.3913 107.748 23.3992H101.425V22.9773C101.731 22.896 101.924 22.7848 102.003 22.6444C102.082 22.5041 102.121 22.2163 102.121 21.781V16.2819C102.121 15.8476 102.083 15.5598 102.003 15.4185C101.924 15.2773 101.731 15.1713 101.425 15.0989V14.6769H104.852V15.0989C104.545 15.1713 104.355 15.2755 104.283 15.3964C104.21 15.5174 104.174 15.8176 104.174 16.2793V22.5879H106.815V16.2819C106.815 15.8599 106.776 15.5754 106.696 15.4282C106.618 15.2817 106.431 15.1713 106.124 15.0989V14.6769H109.501V15.0989C109.206 15.1713 109.019 15.2755 108.938 15.422C108.856 15.5686 108.817 15.8511 108.817 16.2819L108.813 22.5932Z" fill="#3DB5B6"/>
<path d="M119.519 21.7934C119.519 22.2236 119.557 22.5102 119.631 22.6533C119.706 22.7963 119.896 22.9031 120.197 22.9755V23.3984H116.859V22.9764C117.166 22.904 117.356 22.8051 117.428 22.6797C117.5 22.5544 117.537 22.2601 117.537 21.7969V19.2941C117.537 18.5396 117.556 17.9661 117.594 17.5735H117.556L114.521 21.7934C114.521 22.2154 114.56 22.4996 114.639 22.6462C114.718 22.7927 114.909 22.9025 115.212 22.9755V23.3984H111.857V22.9764C112.151 22.904 112.339 22.7998 112.421 22.6541C112.502 22.5085 112.542 22.2242 112.542 21.7943V16.2819C112.542 15.8434 112.503 15.5556 112.427 15.4185C112.35 15.2814 112.161 15.1728 111.857 15.0928V14.6708H115.212V15.0928C114.909 15.181 114.719 15.2905 114.639 15.4318C114.56 15.573 114.521 15.8582 114.521 16.2881V19.1017C114.521 19.6349 114.506 20.0548 114.477 20.3614H114.515L117.539 16.1345C117.539 15.7772 117.501 15.5333 117.425 15.4026C117.348 15.272 117.16 15.1687 116.861 15.0928V14.6708H120.199V15.0928C119.901 15.174 119.713 15.2837 119.637 15.422C119.56 15.5604 119.522 15.849 119.522 16.2881L119.519 21.7934Z" fill="#3DB5B6"/>
<path d="M129.764 21.7934C129.757 22.019 129.771 22.2448 129.806 22.4679C129.83 22.5839 129.889 22.6898 129.975 22.7716C130.112 22.8762 130.272 22.9461 130.442 22.9755V23.3984H127.104V22.9764C127.351 22.9128 127.511 22.849 127.584 22.7848C127.661 22.7119 127.715 22.6171 127.737 22.5129C127.776 22.2755 127.791 22.0347 127.782 21.7943V19.2332H124.892V21.7934C124.892 21.9426 124.892 22.0803 124.904 22.2083C124.909 22.3144 124.926 22.4196 124.955 22.5217C124.978 22.597 125.016 22.6668 125.068 22.7265C125.124 22.7874 125.193 22.8363 125.269 22.8704C125.369 22.9163 125.474 22.9515 125.582 22.9755V23.3984H122.228V22.9764C122.357 22.9443 122.482 22.8985 122.601 22.8395C122.689 22.7941 122.76 22.7225 122.806 22.6347C122.856 22.5302 122.886 22.4174 122.894 22.3019C122.906 22.1677 122.913 21.9982 122.913 21.7943V16.2819C122.913 16.0815 122.908 15.9138 122.898 15.7769C122.892 15.6615 122.863 15.5484 122.814 15.4441C122.767 15.3569 122.696 15.2849 122.61 15.2367C122.49 15.1725 122.362 15.1241 122.229 15.0928V14.6708H125.584V15.0928C125.416 15.1287 125.258 15.2007 125.121 15.3037C125.034 15.386 124.972 15.4914 124.944 15.6074C124.901 15.8316 124.884 16.06 124.893 16.2881V18.4236H127.783V16.2881C127.79 16.0625 127.776 15.8367 127.742 15.6136C127.719 15.4969 127.66 15.39 127.575 15.3073C127.492 15.2278 127.335 15.1563 127.105 15.0928V14.6708H130.443V15.0928C130.299 15.1257 130.161 15.1808 130.033 15.2561C129.952 15.3093 129.889 15.3859 129.852 15.4759C129.814 15.5723 129.79 15.6737 129.781 15.7769C129.77 15.8882 129.765 16.0586 129.765 16.2881L129.764 21.7934Z" fill="#3DB5B6"/>
<path d="M138.514 14.8685V16.7224H137.644C137.542 16.2404 137.379 15.8855 137.158 15.6578C137.044 15.5434 136.909 15.4539 136.759 15.395C136.609 15.336 136.449 15.3088 136.288 15.3152C135.615 15.3152 135.105 15.6389 134.76 16.2863C134.414 16.9337 134.242 17.8919 134.242 19.1608C134.242 20.3414 134.399 21.2354 134.715 21.8428C135.03 22.4502 135.493 22.7539 136.103 22.7539C136.365 22.7643 136.626 22.7107 136.864 22.5976C137.063 22.49 137.226 22.3264 137.333 22.1271C137.476 21.8486 137.578 21.5514 137.637 21.2443H138.514V23.1812C138.09 23.284 137.66 23.3653 137.228 23.4248C136.827 23.4761 136.424 23.5015 136.02 23.5008C135.133 23.5008 134.409 23.341 133.849 23.0214C133.284 22.6938 132.848 22.183 132.613 21.5736C132.346 20.9262 132.213 20.1087 132.213 19.1211C132.213 18.1959 132.37 17.3913 132.683 16.7074C132.972 16.0506 133.455 15.4981 134.068 15.1245C134.677 14.7538 135.406 14.5684 136.254 14.5684C136.646 14.5661 137.036 14.5897 137.424 14.639C137.794 14.6901 138.159 14.7668 138.518 14.8685" fill="#3DB5B6"/>
<path d="M145.817 23.3992V23.0788C145.758 22.9428 145.602 22.5229 145.35 21.819C145.056 20.988 144.838 20.4224 144.698 20.1222C144.588 19.8597 144.409 19.6319 144.18 19.4636C143.975 19.3247 143.681 19.2553 143.297 19.2553H143.169V21.7934C143.169 22.2154 143.209 22.4996 143.288 22.6462C143.367 22.7936 143.558 22.9031 143.861 22.9764V23.3984H140.506V22.9764C140.8 22.9031 140.988 22.7998 141.069 22.6533C141.15 22.5067 141.19 22.2233 141.19 21.7934V16.2819C141.19 15.8434 141.152 15.5556 141.075 15.4185C140.999 15.2814 140.809 15.1728 140.506 15.0928V14.6708H143.861V15.0928C143.562 15.174 143.372 15.2843 143.291 15.4256C143.21 15.5668 143.169 15.8511 143.169 16.2819V18.5587H143.301C143.816 18.5587 144.21 18.4083 144.48 18.1076C144.751 17.8068 144.978 17.3837 145.161 16.8381C145.383 16.1689 145.587 15.6957 145.772 15.4185C145.947 15.1509 146.188 14.9329 146.472 14.7855C146.754 14.6407 147.121 14.5684 147.572 14.5684C147.885 14.5627 148.197 14.6126 148.493 14.7158V16.2952H147.591C147.544 15.9067 147.373 15.7125 147.079 15.7125C146.857 15.7125 146.669 15.8302 146.513 16.0656C146.317 16.3827 146.153 16.7191 146.024 17.0694C145.751 17.7898 145.372 18.2842 144.886 18.5525V18.6152C145.33 18.6664 145.685 18.7803 145.951 18.9569C146.203 19.1168 146.414 19.3325 146.569 19.5872C146.817 20.0536 147.038 20.5338 147.231 21.0253C147.584 21.8823 147.828 22.4119 147.963 22.6144C148.097 22.8148 148.316 22.9358 148.618 22.979V23.401L145.817 23.3992Z" fill="#3DB5B6"/>
<path d="M153.835 23.5008C152.583 23.5008 151.641 23.1344 151.01 22.4017C150.379 21.6689 150.065 20.571 150.066 19.1078C150.066 18.1491 150.219 17.3298 150.524 16.6501C150.798 16.0044 151.269 15.4617 151.87 15.0989C152.463 14.7458 153.169 14.5692 153.989 14.5692C155.264 14.5692 156.221 14.9347 156.86 15.6657C157.499 16.3967 157.819 17.4826 157.819 18.9233C157.819 19.729 157.724 20.4209 157.534 20.9988C157.373 21.5268 157.097 22.0125 156.726 22.4211C156.379 22.7907 155.948 23.0714 155.469 23.2395C154.944 23.4213 154.391 23.5109 153.835 23.5043M152.103 18.9392C152.103 20.2264 152.258 21.1845 152.567 21.8137C152.876 22.4429 153.346 22.7571 153.979 22.7565C154.28 22.7656 154.576 22.6723 154.817 22.4917C155.062 22.2953 155.255 22.0403 155.376 21.7501C155.53 21.3903 155.634 21.0105 155.683 20.6219C155.746 20.1469 155.775 19.6681 155.771 19.1891C155.784 18.4731 155.717 17.7579 155.57 17.057C155.436 16.4838 155.233 16.0512 154.963 15.7593C154.831 15.6153 154.671 15.5013 154.491 15.4251C154.312 15.349 154.118 15.3124 153.923 15.3179C153.305 15.3179 152.846 15.6121 152.545 16.2007C152.245 16.7892 152.095 17.7015 152.095 18.9375" fill="#3DB5B6"/>
<path d="M165.936 14.6708V16.7013H165.06C164.92 16.2957 164.802 16.0218 164.706 15.8794C164.614 15.7427 164.494 15.6274 164.353 15.5412C164.217 15.4571 163.985 15.4153 163.657 15.4159H162.263V18.4854H163.107C163.258 18.4927 163.409 18.4652 163.548 18.4051C163.661 18.3456 163.754 18.2533 163.813 18.1403C163.905 17.9579 163.973 17.7644 164.015 17.5647H164.737V20.161H164.015C163.974 19.9647 163.907 19.7745 163.817 19.5952C163.759 19.4798 163.669 19.3833 163.558 19.3171C163.417 19.2514 163.262 19.2211 163.107 19.2288H162.263V22.6435H163.651C163.777 22.6452 163.903 22.6357 164.028 22.6153C164.124 22.5982 164.218 22.5644 164.303 22.5155C164.39 22.4636 164.468 22.3991 164.536 22.324C164.61 22.2422 164.677 22.1535 164.734 22.0591C164.804 21.9404 164.865 21.8164 164.917 21.6883C164.998 21.4813 165.069 21.27 165.128 21.0553H166.003L165.882 23.3895H159.597V22.9675C159.726 22.9349 159.851 22.8887 159.97 22.8298C160.058 22.7844 160.13 22.7128 160.175 22.625C160.225 22.5206 160.255 22.4077 160.263 22.2922C160.276 22.158 160.283 21.9885 160.283 21.7846V16.2819C160.283 16.0815 160.277 15.9138 160.267 15.7769C160.261 15.6615 160.233 15.5484 160.183 15.4441C160.136 15.3569 160.065 15.2849 159.979 15.2367C159.859 15.1725 159.731 15.1241 159.598 15.0928V14.6708H165.936Z" fill="#3DB5B6"/>
<path d="M62.6655 31.9211C61.9727 31.9211 61.4525 31.7187 61.1046 31.3138C60.7568 30.9088 60.582 30.3017 60.5802 29.4925C60.5681 29.0266 60.6541 28.5634 60.8327 28.1329C60.9848 27.776 61.2455 27.476 61.5778 27.2757C61.9336 27.073 62.3382 26.9717 62.7476 26.9826C63.4538 26.9826 63.9835 27.1848 64.3366 27.5891C64.6898 27.9935 64.8663 28.5938 64.8663 29.3901C64.8746 29.7785 64.8216 30.1658 64.7092 30.5378C64.6195 30.8296 64.4667 31.0982 64.2616 31.3243C64.0696 31.5285 63.8313 31.6836 63.5668 31.7764C63.2764 31.8765 62.9708 31.9255 62.6637 31.9211M61.7058 29.3971C61.7058 30.1087 61.7912 30.6384 61.9618 30.9862C62.1325 31.3341 62.3935 31.508 62.7449 31.508C62.9115 31.5126 63.0747 31.461 63.2084 31.3614C63.344 31.2525 63.4502 31.1114 63.5174 30.9509C63.6033 30.752 63.6604 30.5418 63.6869 30.3268C63.7228 30.0635 63.7399 29.7979 63.7381 29.5322C63.7453 29.1364 63.708 28.7411 63.6268 28.3536C63.5783 28.0896 63.4628 27.8425 63.2914 27.6359C63.2186 27.5566 63.1296 27.4939 63.0304 27.452C62.9313 27.4101 62.8243 27.39 62.7167 27.3931C62.3747 27.3931 62.1208 27.5565 61.9548 27.8831C61.7888 28.2098 61.7058 28.7135 61.7058 29.3945" fill="#3DB5B6"/>
<path d="M65.8486 31.8646V31.6316C66.0111 31.5918 66.1135 31.5318 66.1594 31.455C66.2053 31.3782 66.2265 31.2175 66.2265 30.9792V27.9299C66.2265 27.6874 66.2053 27.5282 66.1629 27.4523C66.1205 27.3772 66.0155 27.3172 65.8486 27.2757V27.0427H69.5715V28.238H69.0868C68.9809 27.909 68.8779 27.6983 68.7778 27.6059C68.6772 27.5176 68.5209 27.4673 68.3091 27.4673H67.3229V29.0943C67.6437 29.0637 67.9159 29.0484 68.1396 29.0484C68.7311 29.0484 69.1725 29.1614 69.4638 29.3874C69.7569 29.6134 69.9052 29.9736 69.9052 30.4654C69.9052 31.4012 69.2784 31.8691 68.0248 31.8691L65.8486 31.8646ZM67.3229 31.4409C67.9356 31.4809 68.3373 31.4191 68.528 31.2555C68.7187 31.0919 68.8143 30.8317 68.8149 30.4751C68.8149 29.823 68.493 29.4966 67.8491 29.496H67.7255C67.591 29.4943 67.4565 29.5014 67.3229 29.5172V31.4409Z" fill="#3DB5B6"/>
<path d="M72.2921 30.9809C72.2895 31.0916 72.2954 31.2023 72.3097 31.312C72.3181 31.3673 72.3379 31.4202 72.368 31.4674C72.3983 31.5088 72.4383 31.5422 72.4845 31.5645C72.5597 31.5975 72.639 31.62 72.7202 31.6316V31.8646H70.8213V31.6316C70.8928 31.614 70.962 31.5885 71.0279 31.5556C71.0766 31.5307 71.1164 31.4912 71.1418 31.4426C71.169 31.3849 71.1851 31.3227 71.1894 31.259C71.1965 31.1849 71.2 31.0904 71.2 30.9774V27.9299C71.2 27.8195 71.2 27.726 71.1912 27.6509C71.1882 27.587 71.1726 27.5243 71.1453 27.4664C71.1189 27.4181 71.0795 27.3783 71.0314 27.3516C70.9651 27.3163 70.8944 27.2896 70.8213 27.2722V27.0391H72.8756C73.4718 27.0391 73.9185 27.1457 74.2157 27.3587C74.513 27.5718 74.6601 27.9002 74.6572 28.3439C74.6645 28.6302 74.5924 28.9128 74.4488 29.1605C74.3068 29.3941 74.0954 29.5775 73.8441 29.6849C73.5303 29.8128 73.1931 29.873 72.8544 29.8615C72.6258 29.8615 72.4386 29.8562 72.2921 29.8474V30.9809ZM72.2921 29.4501H72.5966C72.7889 29.4583 72.9807 29.424 73.1581 29.3495C73.2966 29.2845 73.4071 29.1721 73.4698 29.0325C73.5444 28.8449 73.5787 28.6437 73.5704 28.4419C73.5787 28.2419 73.5444 28.0424 73.4698 27.8566C73.4118 27.7213 73.3067 27.6115 73.174 27.5476C73.0166 27.4819 72.8465 27.4518 72.6761 27.4593C72.511 27.4593 72.3839 27.4593 72.2938 27.4664L72.2921 29.4501Z" fill="#3DB5B6"/>
<path d="M77.696 30.3691H76.1864L76.0698 30.7099C76.0372 30.8044 76.0098 30.8953 75.9886 30.9836C75.967 31.0756 75.9563 31.1698 75.9568 31.2643C75.9568 31.4956 76.0792 31.6195 76.3241 31.636V31.8691H74.8145V31.636C74.8981 31.6291 74.978 31.5984 75.0449 31.5477C75.1156 31.4879 75.1754 31.4162 75.2214 31.3358C75.292 31.2129 75.3511 31.0838 75.398 30.95L76.8723 27.0224H77.8161L78.9831 30.9748C79.018 31.1033 79.0616 31.2292 79.1138 31.3517C79.1461 31.42 79.1931 31.4803 79.2515 31.5283C79.3217 31.5799 79.4031 31.6144 79.489 31.6289V31.862H77.5371V31.6289C77.6362 31.624 77.7313 31.5882 77.809 31.5265C77.8393 31.4968 77.8629 31.461 77.8781 31.4214C77.8934 31.3818 77.8999 31.3393 77.8973 31.297C77.8961 31.2149 77.8878 31.1331 77.8726 31.0524C77.8561 30.963 77.8287 30.85 77.7905 30.7134L77.696 30.3691ZM76.3206 29.956H77.5936L77.0277 27.9652L76.3206 29.956Z" fill="#3DB5B6"/>
<path d="M82.6265 29.3442C83.378 29.5584 83.7538 29.9533 83.7538 30.5289C83.7538 30.9739 83.592 31.3173 83.2683 31.5592C82.9446 31.8011 82.462 31.9217 81.8205 31.9211C81.3629 31.9129 80.9085 31.8428 80.4697 31.7128V30.6596H80.9615C81.0692 31.0127 81.1901 31.2414 81.3217 31.3526C81.4813 31.4719 81.678 31.5307 81.8769 31.5186C81.9833 31.5241 82.0894 31.5044 82.1866 31.4611C82.2839 31.4178 82.3695 31.3522 82.4367 31.2696C82.5703 31.1031 82.6371 30.8609 82.6371 30.543C82.6371 30.2014 82.5638 29.9639 82.4181 29.8324C82.2725 29.7008 82.035 29.6337 81.7119 29.6337H81.1248V29.0793H81.6801C81.9723 29.0793 82.1912 29.0175 82.3387 28.8948C82.4861 28.7721 82.5603 28.5276 82.5603 28.1594C82.5737 27.9514 82.507 27.7461 82.374 27.5856C82.3145 27.519 82.2411 27.4663 82.1591 27.4311C82.077 27.3959 81.9883 27.379 81.899 27.3817C81.7005 27.3693 81.5047 27.4323 81.3508 27.5582C81.2213 27.6759 81.1012 27.8872 80.9906 28.1921H80.5024V27.191C80.9954 27.0608 81.5022 26.9897 82.012 26.9791C83.1173 26.9791 83.67 27.3572 83.67 28.1135C83.67 28.6344 83.3212 29.0293 82.6238 29.2983L82.6265 29.3442Z" fill="#3DB5B6"/>
<path d="M86.9275 31.9211C86.2342 31.9211 85.7139 31.7187 85.3666 31.3138C85.0194 30.9088 84.8455 30.3017 84.8449 29.4925C84.8326 29.0265 84.919 28.5632 85.0983 28.1329C85.25 27.776 85.5104 27.4761 85.8425 27.2757C86.1984 27.0732 86.6029 26.9718 87.0122 26.9826C87.7185 26.9826 88.2482 27.1848 88.6013 27.5891C88.9544 27.9935 89.131 28.5938 89.131 29.3901C89.1393 29.7785 89.0863 30.1658 88.9739 30.5378C88.8842 30.8296 88.7314 31.0982 88.5263 31.3244C88.3343 31.5285 88.096 31.6836 87.8315 31.7764C87.5411 31.8766 87.2355 31.9256 86.9284 31.9211M85.9705 29.3971C85.9705 30.1087 86.0558 30.6384 86.2265 30.9862C86.3972 31.3341 86.6582 31.508 87.0096 31.508C87.1762 31.5126 87.3394 31.461 87.4731 31.3614C87.6087 31.2525 87.7149 31.1114 87.7821 30.9509C87.8679 30.7519 87.9253 30.5418 87.9524 30.3268C87.9879 30.0634 88.005 29.7979 88.0036 29.5322C88.0111 29.1364 87.9735 28.741 87.8915 28.3536C87.8429 28.0896 87.7274 27.8425 87.5561 27.6359C87.4834 27.5565 87.3944 27.4937 87.2952 27.4518C87.196 27.4099 87.089 27.3899 86.9813 27.3931C86.64 27.3931 86.386 27.5565 86.2195 27.8831C86.0529 28.2098 85.9699 28.7135 85.9705 29.3945" fill="#3DB5B6"/>
<path d="M93.1561 29.3371C93.4443 29.4155 93.7054 29.5716 93.9109 29.7882C94.0828 29.9828 94.1755 30.2349 94.1705 30.4945C94.1762 30.7066 94.1358 30.9175 94.0522 31.1125C93.9742 31.2864 93.8495 31.4352 93.692 31.5424C93.5194 31.6595 93.3262 31.7428 93.1225 31.7878C92.8489 31.8453 92.5696 31.8714 92.29 31.8655H90.1104V31.6325C90.1818 31.6149 90.2511 31.5894 90.3169 31.5565C90.3656 31.5317 90.4051 31.4922 90.4299 31.4435C90.4571 31.3858 90.4733 31.3236 90.4776 31.2599C90.4847 31.1857 90.4882 31.0913 90.4882 30.9783V27.9299C90.4882 27.8195 90.4882 27.726 90.4794 27.6509C90.4768 27.5869 90.4612 27.5242 90.4335 27.4664C90.4075 27.4182 90.3683 27.3784 90.3205 27.3516C90.2541 27.3164 90.1835 27.2897 90.1104 27.2722V27.0391H92.426C92.6424 27.0362 92.8586 27.0492 93.0731 27.078C93.2742 27.1065 93.4691 27.1685 93.6496 27.2616C93.7934 27.3373 93.9123 27.4529 93.9921 27.5944C94.0781 27.7511 94.1207 27.9278 94.1157 28.1065C94.1157 28.6397 93.7953 29.0393 93.1543 29.3053L93.1561 29.3371ZM92.057 29.1535C92.2472 29.1623 92.4369 29.1273 92.6114 29.0511C92.741 28.9873 92.8479 28.8853 92.9177 28.7589C92.9948 28.5962 93.0306 28.417 93.0219 28.2371C93.0302 28.0746 92.9909 27.9133 92.9089 27.7728C92.8321 27.6571 92.7186 27.5706 92.5867 27.5273C92.4192 27.4728 92.2436 27.4474 92.0676 27.4523C91.9025 27.4523 91.7418 27.4585 91.5864 27.4699V29.1535H92.057ZM91.5864 31.4409C91.725 31.4479 91.8857 31.4515 92.0676 31.4515C92.2553 31.4573 92.4425 31.4292 92.6202 31.3685C92.7636 31.3145 92.8833 31.2117 92.9583 31.078C93.0467 30.9027 93.088 30.7074 93.0784 30.5113C93.0818 30.3631 93.0603 30.2154 93.0148 30.0743C92.9782 29.9615 92.9124 29.8604 92.8242 29.7812C92.7361 29.7047 92.632 29.6488 92.5196 29.6179C92.3755 29.5808 92.227 29.5635 92.0782 29.5666H91.5864V31.4409Z" fill="#3DB5B6"/>
<path d="M97.7683 30.3691H96.2586L96.1421 30.7055C96.1094 30.8 96.0821 30.8909 96.0609 30.9792C96.0393 31.0712 96.0286 31.1654 96.0291 31.2599C96.0291 31.4912 96.1518 31.6151 96.3972 31.6316V31.8646H94.8867V31.6316C94.9704 31.6246 95.0503 31.594 95.1171 31.5433C95.1882 31.4838 95.248 31.412 95.2937 31.3314C95.3642 31.2085 95.4233 31.0793 95.4703 30.9456L96.9446 27.0179H97.8892L99.0554 30.9747C99.0902 31.1033 99.1339 31.2292 99.1861 31.3517C99.2184 31.4203 99.2657 31.4806 99.3247 31.5283C99.3945 31.5801 99.4756 31.6146 99.5613 31.6289V31.862H97.6093V31.6289C97.7087 31.6239 97.804 31.5881 97.8821 31.5265C97.9124 31.4968 97.9359 31.4609 97.9511 31.4213C97.9663 31.3817 97.9729 31.3393 97.9704 31.297C97.9693 31.2149 97.961 31.1331 97.9457 31.0524C97.9289 30.9642 97.9016 30.8503 97.8645 30.7134L97.7683 30.3691ZM96.3937 29.956H97.6658L97.1008 27.9652L96.3937 29.956Z" fill="#3DB5B6"/>
<path d="M104.729 30.9748C104.725 31.0997 104.732 31.2247 104.752 31.3482C104.765 31.4124 104.798 31.4709 104.846 31.5159C104.921 31.5739 105.01 31.6126 105.104 31.6289V31.862H103.258V31.6289C103.353 31.6115 103.443 31.5755 103.523 31.523C103.567 31.483 103.598 31.4307 103.612 31.3729C103.633 31.2414 103.641 31.108 103.636 30.9748V29.5622H102.038V30.9748C102.038 31.0577 102.038 31.1337 102.045 31.2052C102.048 31.2649 102.057 31.3242 102.074 31.3817C102.086 31.4233 102.107 31.4618 102.135 31.4947C102.167 31.5285 102.205 31.5555 102.247 31.5742C102.304 31.5993 102.363 31.6188 102.423 31.6325V31.8655H100.569V31.6325C100.641 31.6149 100.71 31.5894 100.776 31.5565C100.825 31.5317 100.864 31.4922 100.889 31.4435C100.916 31.3858 100.932 31.3236 100.937 31.2599C100.944 31.1857 100.947 31.0913 100.947 30.9783V27.9299C100.947 27.8195 100.947 27.726 100.938 27.6509C100.936 27.5869 100.92 27.5241 100.892 27.4664C100.866 27.4182 100.827 27.3784 100.779 27.3516C100.713 27.3164 100.642 27.2897 100.569 27.2722V27.0391H102.423V27.2722C102.33 27.2921 102.243 27.3318 102.166 27.3887C102.118 27.4344 102.085 27.493 102.069 27.5573C102.046 27.6812 102.036 27.8074 102.041 27.9334V29.1146H103.639V27.9334C103.643 27.8088 103.635 27.6841 103.616 27.5609C103.604 27.4965 103.574 27.4371 103.528 27.3905C103.451 27.3323 103.362 27.2919 103.268 27.2722V27.0391H105.113V27.2722C105.034 27.29 104.958 27.3197 104.887 27.3605C104.842 27.3895 104.807 27.4322 104.787 27.4823C104.765 27.5356 104.752 27.5919 104.748 27.6492C104.742 27.7101 104.739 27.8045 104.739 27.9317L104.729 30.9748Z" fill="#3DB5B6"/>
<path d="M110.464 30.9747C110.464 31.2131 110.485 31.3711 110.526 31.4506C110.568 31.53 110.672 31.5892 110.839 31.6272V31.8602H108.994V31.6272C109.163 31.5874 109.268 31.5327 109.308 31.463C109.348 31.3932 109.368 31.2299 109.368 30.973V29.5949C109.368 29.1782 109.379 28.8613 109.4 28.6441H109.379L107.701 30.9774C107.701 31.2128 107.723 31.3703 107.766 31.4497C107.811 31.5309 107.916 31.5918 108.083 31.6316V31.8646H106.229V31.6316C106.392 31.5918 106.494 31.5318 106.541 31.455C106.588 31.3782 106.608 31.2175 106.608 30.9792V27.9299C106.608 27.6874 106.587 27.5282 106.545 27.4523C106.502 27.3764 106.397 27.3175 106.229 27.2757V27.0427H108.083V27.2757C107.916 27.3234 107.811 27.3852 107.766 27.4629C107.722 27.5406 107.701 27.6986 107.701 27.937V29.4925C107.701 29.7868 107.693 30.0189 107.676 30.189H107.698L109.37 27.8522C109.381 27.714 109.359 27.5752 109.306 27.447C109.264 27.3755 109.16 27.3181 108.995 27.2757V27.0427H110.84V27.2757C110.676 27.3207 110.576 27.3817 110.53 27.4576C110.484 27.5335 110.466 27.6942 110.466 27.937L110.464 30.9747Z" fill="#3DB5B6"/>
<path d="M115.468 27.0391V28.163H114.984C114.935 28.0044 114.869 27.8518 114.786 27.7083C114.736 27.6324 114.669 27.5682 114.592 27.5203C114.471 27.4652 114.338 27.4415 114.206 27.4514H113.435V29.1491H113.903C113.987 29.1528 114.07 29.1377 114.147 29.1049C114.209 29.0716 114.26 29.0202 114.293 28.9575C114.344 28.8568 114.381 28.75 114.405 28.6397H114.805V30.0752H114.405C114.382 29.9663 114.345 29.8609 114.295 29.7618C114.263 29.6981 114.213 29.6449 114.152 29.6081C114.074 29.5733 113.989 29.5575 113.903 29.5622H113.436V31.4515H114.203C114.273 31.4525 114.343 31.4472 114.412 31.4356C114.465 31.4261 114.517 31.4076 114.564 31.3808C114.612 31.3516 114.655 31.316 114.693 31.2749C114.734 31.2301 114.771 31.1813 114.803 31.1292C114.842 31.0637 114.875 30.9952 114.903 30.9244C114.949 30.809 114.988 30.6911 115.02 30.5713H115.505L115.437 31.8611H111.961V31.628C112.032 31.6105 112.102 31.585 112.168 31.5521C112.216 31.5271 112.256 31.4877 112.281 31.4391C112.309 31.3814 112.325 31.3191 112.329 31.2555C112.336 31.1804 112.34 31.0869 112.34 30.9739V27.9299C112.34 27.8195 112.34 27.726 112.331 27.6509C112.328 27.587 112.312 27.5243 112.285 27.4664C112.259 27.4181 112.219 27.3783 112.171 27.3516C112.105 27.3163 112.034 27.2896 111.961 27.2722V27.0391H115.468Z" fill="#3DB5B6"/>
<path d="M123.063 30.9747C123.063 31.2131 123.083 31.3711 123.125 31.4506C123.166 31.53 123.271 31.5892 123.438 31.6272V31.8602H121.592V31.6272C121.762 31.5871 121.867 31.5324 121.908 31.463C121.948 31.3935 121.968 31.2302 121.968 30.973V29.5949C121.968 29.1782 121.978 28.8613 121.999 28.6441H121.978L120.301 30.9774C120.301 31.2128 120.323 31.3703 120.366 31.4497C120.41 31.5309 120.515 31.5918 120.683 31.6316V31.8646H118.829V31.6316C118.992 31.5918 119.094 31.5318 119.141 31.455C119.188 31.3782 119.208 31.2175 119.208 30.9792V27.9299C119.208 27.6874 119.187 27.5282 119.144 27.4523C119.102 27.3764 118.997 27.3175 118.829 27.2757V27.0427H120.683V27.2757C120.515 27.3234 120.41 27.3852 120.366 27.4629C120.322 27.5406 120.301 27.6986 120.301 27.937V29.4925C120.301 29.7868 120.293 30.0189 120.276 30.189H120.297L121.97 27.8522C121.981 27.714 121.959 27.5752 121.907 27.447C121.864 27.3755 121.76 27.3181 121.595 27.2757V27.0427H123.437V27.2757C123.272 27.3207 123.173 27.3817 123.126 27.4576C123.079 27.5335 123.062 27.6942 123.062 27.937L123.063 30.9747Z" fill="#3DB5B6"/>
<path d="M128.275 30.9809C128.273 31.0916 128.278 31.2023 128.293 31.312C128.301 31.3674 128.321 31.4204 128.351 31.4674C128.381 31.5088 128.421 31.5422 128.468 31.5645C128.543 31.5975 128.622 31.62 128.703 31.6316V31.8646H126.801V31.6316C126.872 31.614 126.942 31.5885 127.007 31.5556C127.056 31.5309 127.096 31.4913 127.12 31.4426C127.148 31.385 127.164 31.3227 127.169 31.259C127.176 31.1849 127.18 31.0904 127.18 30.9774V27.9299C127.18 27.8195 127.18 27.726 127.17 27.6509C127.167 27.5869 127.152 27.5241 127.124 27.4664C127.098 27.4182 127.059 27.3784 127.011 27.3516C126.944 27.3164 126.874 27.2897 126.801 27.2722V27.0391H128.855C129.451 27.0391 129.898 27.1457 130.195 27.3587C130.492 27.5718 130.64 27.9002 130.637 28.3439C130.644 28.6301 130.571 28.9127 130.428 29.1605C130.286 29.3939 130.075 29.5772 129.824 29.6849C129.51 29.8128 129.173 29.873 128.834 29.8615C128.605 29.8615 128.418 29.8562 128.272 29.8474L128.275 30.9809ZM128.275 29.4501H128.579C128.771 29.4584 128.963 29.424 129.141 29.3495C129.279 29.2835 129.389 29.1701 129.451 29.0299C129.526 28.8423 129.56 28.641 129.552 28.4393C129.56 28.2392 129.526 28.0397 129.451 27.854C129.393 27.7186 129.288 27.6088 129.155 27.545C128.998 27.4793 128.828 27.4492 128.657 27.4567C128.492 27.4567 128.364 27.4567 128.275 27.4638V29.4501Z" fill="#3DB5B6"/>
<path d="M133.678 30.3691H132.168L132.053 30.7099C132.021 30.7996 131.994 30.891 131.972 30.9836C131.95 31.0756 131.94 31.1698 131.94 31.2643C131.94 31.4956 132.062 31.6174 132.307 31.636V31.8691H130.798V31.636C130.881 31.6289 130.961 31.5983 131.027 31.5477C131.098 31.4879 131.158 31.4162 131.204 31.3358C131.274 31.2127 131.333 31.0836 131.381 30.95L132.855 27.0224H133.799L134.967 30.9748C135.001 31.1034 135.045 31.2294 135.097 31.3517C135.129 31.42 135.177 31.4803 135.235 31.5283C135.305 31.5799 135.386 31.6144 135.472 31.6289V31.862H133.52V31.6289C133.62 31.6239 133.715 31.5881 133.792 31.5265C133.823 31.4969 133.846 31.461 133.862 31.4214C133.877 31.3818 133.883 31.3393 133.881 31.297C133.88 31.2149 133.872 31.133 133.856 31.0524C133.84 30.9642 133.813 30.8503 133.775 30.7134L133.678 30.3691ZM132.302 29.956H133.575L133.009 27.9652L132.302 29.956Z" fill="#3DB5B6"/>
<path d="M138.61 29.3442C139.361 29.5584 139.737 29.9533 139.737 30.5289C139.737 30.9739 139.575 31.3173 139.252 31.5592C138.928 31.8011 138.445 31.9217 137.803 31.9211C137.346 31.9129 136.892 31.8428 136.453 31.7128V30.6596H136.945C137.053 31.0127 137.174 31.2414 137.306 31.3526C137.465 31.472 137.662 31.5308 137.861 31.5186C137.968 31.5241 138.074 31.5044 138.171 31.4611C138.268 31.4178 138.354 31.3522 138.421 31.2696C138.554 31.1031 138.621 30.8609 138.621 30.543C138.621 30.2014 138.548 29.9639 138.402 29.8324C138.255 29.7008 138.018 29.6337 137.695 29.6337H137.108V29.0793H137.671C137.965 29.0793 138.185 29.0178 138.33 28.8948C138.475 28.7718 138.549 28.5267 138.551 28.1594C138.564 27.9515 138.498 27.7464 138.365 27.5856C138.306 27.5193 138.232 27.4668 138.15 27.4316C138.068 27.3964 137.98 27.3793 137.89 27.3817C137.692 27.3693 137.496 27.4323 137.342 27.5582C137.213 27.6759 137.092 27.8872 136.981 28.1921H136.494V27.191C136.987 27.0608 137.494 26.9897 138.003 26.9791C139.109 26.9791 139.661 27.3572 139.661 28.1135C139.661 28.6344 139.313 29.0293 138.615 29.2983L138.61 29.3442Z" fill="#3DB5B6"/>
<path d="M143.742 29.3371C144.03 29.4155 144.291 29.5716 144.497 29.7882C144.669 29.9828 144.762 30.2349 144.757 30.4945C144.762 30.7066 144.722 30.9173 144.638 31.1125C144.56 31.286 144.435 31.4347 144.278 31.5424C144.106 31.6595 143.912 31.7428 143.709 31.7878C143.435 31.8453 143.156 31.8713 142.876 31.8655H140.698V31.6325C140.77 31.6146 140.839 31.5891 140.905 31.5565C140.953 31.5314 140.993 31.4919 141.018 31.4435C141.045 31.3858 141.061 31.3236 141.065 31.2599C141.073 31.1857 141.076 31.0913 141.076 30.9783V27.9299C141.076 27.8195 141.076 27.726 141.067 27.6509C141.064 27.587 141.049 27.5243 141.021 27.4664C140.995 27.4184 140.956 27.3786 140.908 27.3516C140.842 27.3166 140.771 27.2899 140.698 27.2722V27.0391H143.014C143.23 27.0362 143.447 27.0492 143.661 27.078C143.862 27.1065 144.056 27.1685 144.237 27.2616C144.381 27.3373 144.5 27.4528 144.58 27.5944C144.666 27.7513 144.708 27.9279 144.704 28.1065C144.704 28.6397 144.383 29.0393 143.742 29.3053V29.3371ZM142.642 29.1535C142.833 29.1623 143.023 29.1273 143.198 29.0511C143.327 28.9871 143.433 28.8852 143.503 28.7589C143.581 28.5964 143.617 28.4171 143.608 28.2371C143.616 28.0745 143.577 27.913 143.494 27.7728C143.418 27.6572 143.304 27.5708 143.173 27.5273C143.005 27.4728 142.829 27.4474 142.653 27.4523C142.488 27.4523 142.328 27.4585 142.173 27.4699V29.1535H142.642ZM142.173 31.4409C142.311 31.4479 142.472 31.4515 142.653 31.4515C142.841 31.4574 143.028 31.4292 143.206 31.3685C143.35 31.3147 143.469 31.2118 143.544 31.078C143.633 30.9029 143.674 30.7075 143.665 30.5113C143.668 30.3631 143.646 30.2154 143.601 30.0743C143.564 29.9616 143.498 29.8606 143.409 29.7812C143.322 29.7048 143.218 29.6491 143.106 29.6179C142.962 29.5808 142.813 29.5636 142.664 29.5666H142.173L142.173 31.4409Z" fill="#3DB5B6"/>
<path d="M149.97 30.9747C149.97 31.2131 149.991 31.3711 150.032 31.4506C150.074 31.53 150.178 31.5892 150.346 31.6272V31.8602H148.5V31.6272C148.669 31.5874 148.774 31.5327 148.814 31.463C148.854 31.3932 148.875 31.2299 148.875 30.973V29.5949C148.875 29.1782 148.885 28.8613 148.907 28.6441H148.885L147.208 30.9774C147.208 31.2128 147.23 31.3703 147.273 31.4497C147.317 31.5309 147.423 31.5918 147.59 31.6316V31.8646H145.736V31.6316C145.899 31.5918 146.001 31.5318 146.048 31.455C146.095 31.3782 146.115 31.2175 146.115 30.9792V27.9299C146.115 27.6874 146.094 27.5282 146.052 27.4523C146.009 27.3764 145.904 27.3175 145.736 27.2757V27.0427H147.59V27.2757C147.423 27.3234 147.317 27.3852 147.273 27.4629C147.229 27.5406 147.208 27.6986 147.208 27.937V29.4925C147.208 29.7868 147.2 30.0189 147.183 30.189H147.204L148.882 27.8522C148.893 27.7139 148.871 27.575 148.817 27.447C148.775 27.3755 148.672 27.3181 148.507 27.2757V27.0427H150.353V27.2757C150.188 27.3207 150.088 27.3817 150.041 27.4576C149.994 27.5335 149.977 27.6942 149.977 27.937L149.97 30.9747Z" fill="#3DB5B6"/>
<path d="M152.524 31.8646V31.6316C152.605 31.6203 152.684 31.5983 152.759 31.5662C152.813 31.5423 152.858 31.5022 152.888 31.4515C152.918 31.3929 152.937 31.3286 152.942 31.2626C152.949 31.1857 152.951 31.0904 152.951 30.9774V27.4523H152.665C152.555 27.4473 152.444 27.4641 152.34 27.5017C152.263 27.5367 152.195 27.5904 152.144 27.658C152.08 27.7441 152.032 27.8402 152.001 27.9423C151.961 28.0614 151.927 28.1736 151.902 28.2804H151.417V27.0391H155.579V28.2804H155.094C155.05 28.1197 155.014 28.0014 154.988 27.9272C154.965 27.8602 154.936 27.7957 154.9 27.7348C154.872 27.6867 154.838 27.6422 154.799 27.6024C154.766 27.5675 154.728 27.5377 154.686 27.5141C154.639 27.4906 154.588 27.4745 154.536 27.4664C154.458 27.4545 154.379 27.4492 154.3 27.4505H154.046V30.9748C154.045 31.0699 154.048 31.1651 154.057 31.2599C154.061 31.314 154.074 31.367 154.095 31.417C154.112 31.4537 154.135 31.4867 154.164 31.5142C154.198 31.5427 154.236 31.5654 154.277 31.5812C154.341 31.6053 154.407 31.6213 154.474 31.6289V31.862L152.524 31.8646Z" fill="#3DB5B6"/>
<path d="M160.886 30.9747C160.886 31.2131 160.907 31.3711 160.948 31.4506C160.989 31.53 161.094 31.5892 161.261 31.6272V31.8602H159.415V31.6272C159.586 31.5874 159.69 31.5327 159.731 31.463C159.771 31.3932 159.791 31.2299 159.791 30.973V29.5949C159.791 29.1782 159.801 28.8613 159.822 28.6441H159.801L158.124 30.9774C158.124 31.2113 158.145 31.3685 158.189 31.4497C158.233 31.5309 158.338 31.5918 158.505 31.6316V31.8646H156.651V31.6316C156.814 31.5918 156.916 31.5318 156.962 31.455C157.008 31.3782 157.029 31.2175 157.029 30.9792V27.9299C157.029 27.6874 157.008 27.5282 156.966 27.4523C156.923 27.3772 156.818 27.3172 156.651 27.2757V27.0427H158.505V27.2757C158.338 27.3234 158.233 27.3852 158.189 27.4629C158.146 27.5406 158.124 27.6986 158.124 27.937V29.4925C158.124 29.7874 158.115 30.0222 158.099 30.189H158.12L159.792 27.8522C159.803 27.714 159.782 27.5752 159.729 27.447C159.687 27.3755 159.582 27.3181 159.417 27.2757V27.0427H161.263V27.2757C161.098 27.3207 160.998 27.3817 160.952 27.4576C160.905 27.5335 160.888 27.6942 160.888 27.937L160.886 30.9747Z" fill="#3DB5B6"/>
<path d="M165.89 27.0391V28.163H165.407C165.358 28.0045 165.292 27.8522 165.208 27.7092C165.157 27.6333 165.091 27.5691 165.014 27.5211C164.893 27.466 164.761 27.4424 164.629 27.4523H163.858V29.15H164.324C164.408 29.1537 164.492 29.1386 164.569 29.1058C164.631 29.0725 164.682 29.0211 164.715 28.9584C164.766 28.8577 164.803 28.7509 164.827 28.6406H165.226V30.076H164.827C164.803 29.9674 164.766 29.8621 164.717 29.7626C164.684 29.6991 164.634 29.6459 164.573 29.609C164.495 29.5738 164.41 29.5581 164.324 29.5631H163.858V31.4515H164.625C164.695 31.4525 164.765 31.4472 164.834 31.4356C164.887 31.4259 164.938 31.4074 164.985 31.3808C165.033 31.3519 165.077 31.3162 165.114 31.2749C165.156 31.2301 165.192 31.1813 165.224 31.1292C165.263 31.0639 165.297 30.9954 165.325 30.9244C165.371 30.809 165.41 30.6911 165.442 30.5713H165.926L165.859 31.8611H162.384V31.628C162.455 31.6102 162.524 31.5847 162.59 31.5521C162.639 31.527 162.678 31.4875 162.703 31.4391C162.731 31.3814 162.747 31.3191 162.751 31.2555C162.758 31.1804 162.762 31.0869 162.762 30.9739V27.9299C162.762 27.8195 162.762 27.726 162.753 27.6509C162.75 27.587 162.734 27.5243 162.707 27.4664C162.681 27.4184 162.642 27.3786 162.594 27.3516C162.527 27.3165 162.457 27.2899 162.384 27.2722V27.0391H165.89Z" fill="#3DB5B6"/>
<mask id="mask0_34_94" style="mask-type:luminance" maskUnits="userSpaceOnUse" x="20" y="15" width="36" height="25">
<path d="M48.9441 15.5253C44.6518 20.0533 40.5908 26.4812 38.6389 32.2787C38.5803 32.4534 38.4682 32.6053 38.3184 32.7127C38.1687 32.8201 37.9889 32.8777 37.8046 32.8772H37.787C37.6 32.8744 37.4189 32.8116 37.2703 32.6981C37.1217 32.5847 37.0135 32.4265 36.9615 32.2469C34.4057 23.544 29.2501 18.0855 24.8562 15.5253H20.4121V27.989H32.2949V39.9072H44.2563V27.989H55.8698V15.5253H48.9441Z" fill="white"/>
</mask>
<g mask="url(#mask0_34_94)">
<path d="M46.6933 -0.00160624L9.73633 21.8373L29.591 55.4364L66.5479 33.5975L46.6933 -0.00160624Z" fill="url(#paint0_linear_34_94)"/>
</g>
<mask id="mask1_34_94" style="mask-type:luminance" maskUnits="userSpaceOnUse" x="23" y="10" width="31" height="22">
<path d="M41.0021 15.6595C43.7715 13.1708 47.3584 11.6868 51.9359 11.1359C46.3573 14.94 40.3338 23.1423 37.8504 30.4636C35.0828 21.0915 29.1405 15.6145 24.6134 13.6017C24.9365 13.5814 25.2596 13.5708 25.5845 13.5708C28.5783 13.5669 31.5049 14.4585 33.9881 16.131C34.9387 16.7709 36.0583 17.1132 37.2042 17.1144C38.6058 17.1159 39.9583 16.5979 41.0003 15.6604M53.0067 10.2752C47.7098 10.7166 43.6197 12.3004 40.4998 15.1042C39.6741 15.8417 38.6255 16.282 37.5208 16.3551C36.4161 16.4282 35.3187 16.1299 34.403 15.5077C31.7954 13.7533 28.7229 12.8187 25.5801 12.8239C25.0038 12.8233 24.428 12.8536 23.855 12.9148C23.7243 12.9274 23.6019 12.9844 23.5081 13.0763C23.4143 13.1682 23.3548 13.2894 23.3394 13.4198C23.3233 13.5494 23.351 13.6807 23.4182 13.7927C23.4855 13.9048 23.5883 13.991 23.7102 14.0378C28.1491 15.7443 34.3306 21.1401 37.1442 30.7232C37.1878 30.8726 37.2781 31.0042 37.4018 31.0987C37.5255 31.1932 37.6762 31.2456 37.8319 31.2484H37.8469C38.0005 31.2486 38.1502 31.2004 38.2749 31.1107C38.3996 31.021 38.4929 30.8944 38.5417 30.7488C41.1177 23.1176 47.6224 14.4924 53.3519 11.1262C53.6909 10.9267 53.6538 10.6742 53.6229 10.5753C53.585 10.4562 53.4676 10.269 53.1038 10.269C53.073 10.269 53.0412 10.269 53.0076 10.269" fill="white"/>
</mask>
<g mask="url(#mask1_34_94)">
<path d="M53.6908 10.269H23.3066V31.2564H53.6908V10.269Z" fill="url(#paint1_linear_34_94)"/>
</g>
<mask id="mask2_34_94" style="mask-type:luminance" maskUnits="userSpaceOnUse" x="32" y="6" width="10" height="9">
<path d="M35.5236 6.38723C34.5592 6.81545 33.7875 7.58573 33.3576 8.54942C32.9277 9.51311 32.87 10.6019 33.1956 11.6056C33.5213 12.6094 34.2071 13.4569 35.1209 13.9847C36.0347 14.5124 37.1116 14.683 38.1437 14.4635C39.1759 14.244 40.0901 13.6499 40.71 12.796C41.3299 11.942 41.6115 10.8887 41.5005 9.83934C41.3895 8.78996 40.8937 7.81891 40.1088 7.11358C39.324 6.40825 38.3056 6.01865 37.2504 6.01998C36.6555 6.0208 36.0673 6.14589 35.5236 6.38723Z" fill="white"/>
</mask>
<g mask="url(#mask2_34_94)">
<path d="M42.1099 6.01998H32.4023V15.1404H42.1099V6.01998Z" fill="url(#paint2_linear_34_94)"/>
</g>
<mask id="mask3_34_94" style="mask-type:luminance" maskUnits="userSpaceOnUse" x="28" y="2" width="17" height="10">
<path d="M28.1484 11.2242L32.303 11.896C31.8971 10.6689 31.962 9.33459 32.4851 8.15259C33.0081 6.97058 33.952 6.02529 35.1332 5.50045C36.3145 4.97561 37.6486 4.90872 38.8764 5.31278C40.1042 5.71684 41.1379 6.56299 41.7766 7.68675L44.0622 4.15545L33.6449 2.15056L28.1484 11.2242Z" fill="white"/>
</mask>
<g mask="url(#mask3_34_94)">
<path d="M44.0578 2.14672H28.1484V11.8957H44.0578V2.14672Z" fill="url(#paint3_linear_34_94)"/>
</g>
<path d="M30.5786 38.266C25.0169 32.4067 11.0947 35.5548 11.0947 35.5548L11.0603 2.25473L22.537 10.6107L14.5236 7.33097L14.6172 32.2601C31.3511 31.1902 31.9303 40.0811 31.9303 40.0811C24.006 32.5833 5.66889 44.5438 5.66889 44.5438L0.00292969 3.93386L10.0265 7.66821L3.57483 7.94541L8.44979 39.7076C22.9122 33.2065 28.225 36.104 30.5786 38.266Z" fill="#3DB5B6"/>
</g>
<defs>
<linearGradient id="paint0_linear_34_94" x1="27.2771" y1="33.9663" x2="59.6609" y2="14.8298" gradientUnits="userSpaceOnUse">
<stop stop-color="#3DB5B6"/>
<stop offset="1" stop-color="#6AC28C"/>
</linearGradient>
<linearGradient id="paint1_linear_34_94" x1="23.3367" y1="20.4912" x2="53.6422" y2="20.4912" gradientUnits="userSpaceOnUse">
<stop stop-color="#3DB5B6"/>
<stop offset="1" stop-color="#6AC28C"/>
</linearGradient>
<linearGradient id="paint2_linear_34_94" x1="32.9903" y1="10.381" x2="41.5228" y2="10.381" gradientUnits="userSpaceOnUse">
<stop stop-color="#3DB5B6"/>
<stop offset="1" stop-color="#6AC28C"/>
</linearGradient>
<linearGradient id="paint3_linear_34_94" x1="28.1484" y1="6.7526" x2="44.0578" y2="6.7526" gradientUnits="userSpaceOnUse">
<stop stop-color="#3DB5B6"/>
<stop offset="1" stop-color="#6AC28C"/>
</linearGradient>
<clipPath id="clip0_34_94">
<rect width="166" height="55.4378" fill="white"/>
</clipPath>
</defs>
</svg>
