<svg xmlns="http://www.w3.org/2000/svg">
	<symbol id="social-vk" viewBox="0 0 20 21">
		<path d="M19.8142 15.2243C19.8142 15.1447 19.7346 15.1447 19.7346 15.0651C19.4163 14.4285 18.7002 13.6328 17.7453 12.7574C17.2678 12.3596 17.0291 12.0413 16.8699 11.8821C16.6312 11.5638 16.6312 11.3251 16.7108 11.0068C16.7904 10.7681 17.1087 10.3702 17.6657 9.65401C17.984 9.25613 18.1431 9.01741 18.3819 8.77869C19.5755 7.18718 20.1325 6.1527 19.9734 5.67525L19.8938 5.59568C19.8142 5.5161 19.7346 5.43653 19.5755 5.43653C19.4163 5.35696 19.1776 5.35696 18.9389 5.43653H15.915C15.8355 5.43653 15.8355 5.43653 15.6763 5.43653C15.5967 5.43653 15.5172 5.43653 15.5172 5.43653H15.4376H15.358L15.2784 5.5161C15.1989 5.59567 15.1989 5.59567 15.1989 5.67525C14.8806 6.55057 14.4827 7.26675 14.0848 8.0625C13.8461 8.46038 13.6074 8.85826 13.3686 9.17656C13.1299 9.49486 12.9707 9.73358 12.8116 9.89273C12.6524 10.0519 12.4933 10.1315 12.4137 10.2906C12.3341 10.3702 12.175 10.4498 12.175 10.3702C12.0954 10.3702 12.0158 10.3702 12.0158 10.2906C11.9363 10.211 11.8567 10.1315 11.7771 10.0519C11.6976 9.97231 11.6975 9.81316 11.618 9.65401C11.618 9.49485 11.618 9.3357 11.618 9.25613C11.618 9.17655 11.618 8.93784 11.618 8.77869C11.618 8.53996 11.618 8.38081 11.618 8.30123C11.618 8.0625 11.618 7.74421 11.618 7.42591C11.618 7.10761 11.618 6.86888 11.618 6.70973C11.618 6.55058 11.618 6.31185 11.618 6.1527C11.618 5.91398 11.618 5.75482 11.618 5.67525C11.618 5.59567 11.5384 5.43653 11.5384 5.35695C11.4588 5.27738 11.3792 5.1978 11.2997 5.11822C11.2201 5.03865 11.061 5.03865 10.9814 4.95907C10.5835 4.8795 10.1061 4.79993 9.54903 4.79993C8.27583 4.79993 7.4005 4.8795 7.0822 5.03865C6.92305 5.11823 6.7639 5.1978 6.68432 5.35695C6.52517 5.5161 6.52517 5.59568 6.60474 5.59568C7.00262 5.67525 7.32092 5.8344 7.48007 6.07312L7.55965 6.23228C7.63923 6.31186 7.63922 6.471 7.71879 6.70973C7.79837 6.94845 7.79837 7.18718 7.79837 7.50548C7.79837 7.98293 7.79837 8.46039 7.79837 8.77869C7.79837 9.17656 7.71879 9.41528 7.71879 9.65401C7.71879 9.89273 7.63923 10.0519 7.55965 10.1315C7.48008 10.2906 7.48007 10.3702 7.4005 10.3702C7.4005 10.3702 7.40049 10.4498 7.32091 10.4498C7.24134 10.4498 7.16177 10.5293 7.00262 10.5293C6.92304 10.5293 6.7639 10.4498 6.68432 10.3702C6.52517 10.2906 6.36602 10.1315 6.28645 9.97231C6.1273 9.81316 5.96814 9.57443 5.80899 9.25613C5.64984 8.93783 5.41111 8.61953 5.25196 8.14208L5.09282 7.82379C5.01324 7.66464 4.85409 7.34633 4.69494 6.94845C4.53579 6.55058 4.37664 6.23228 4.21749 5.83441C4.13791 5.67526 4.05835 5.59567 3.97877 5.5161H3.89919C3.89919 5.5161 3.81961 5.43653 3.74003 5.43653C3.66046 5.43653 3.58089 5.35695 3.50132 5.35695H0.636604C0.318303 5.35695 0.159155 5.43652 0.07958 5.5161L0 5.59568C0 5.59568 0 5.67525 0 5.75483C0 5.8344 4.8557e-06 5.91397 0.07958 6.07312C0.477456 7.02802 0.954905 7.98293 1.43236 8.93783C1.90981 9.81316 2.38726 10.6089 2.70556 11.1659C3.10344 11.723 3.42174 12.28 3.81961 12.7574C4.21749 13.2349 4.45621 13.5532 4.53578 13.7123C4.69493 13.8715 4.7745 13.9511 4.85408 14.0306L5.09282 14.2694C5.25197 14.4285 5.49069 14.6672 5.80899 14.906C6.12729 15.1447 6.52516 15.3834 6.92304 15.6221C7.32091 15.8609 7.79838 16.02 8.27583 16.1792C8.83285 16.3383 9.3103 16.4179 9.78775 16.3383H10.9814C11.2201 16.3383 11.3793 16.2587 11.5384 16.0996L11.618 16.02C11.618 15.9404 11.6975 15.9404 11.6975 15.8609C11.6975 15.7813 11.6975 15.7017 11.6975 15.5426C11.6975 15.2243 11.6976 14.9855 11.7771 14.7468C11.8567 14.5081 11.8567 14.349 11.9363 14.1898C12.0159 14.0307 12.0954 13.9511 12.175 13.8715C12.2546 13.7919 12.3342 13.7123 12.3342 13.7123H12.4137C12.5729 13.6328 12.8116 13.7123 12.9708 13.8715C13.2095 14.0306 13.4482 14.2694 13.6073 14.5081C13.7665 14.7468 14.0052 14.9855 14.3235 15.3038C14.6418 15.6221 14.8806 15.8609 15.0397 15.9405L15.2784 16.0996C15.4376 16.1792 15.5967 16.2588 15.8355 16.3383C16.0742 16.4179 16.2333 16.4179 16.3925 16.4179L19.0981 16.3383C19.3368 16.3383 19.5755 16.2588 19.7346 16.1792C19.8938 16.0996 19.9734 16.02 19.9734 15.8609C19.9734 15.7813 19.9734 15.6222 19.9734 15.5426C19.8142 15.3834 19.8142 15.3038 19.8142 15.2243Z" />
	</symbol>
	<symbol id="sc-tellegramm" viewBox="0 0 17 14">
		<path d="M14.936 0.118778C12.7831 1.01117 3.55178 4.83522 1.00099 5.87705C-0.710349 6.54485 0.29135 7.16995 0.29135 7.16995C0.29135 7.16995 1.75163 7.67123 3.00354 8.04612C4.25545 8.42186 4.92239 8.00513 4.92239 8.00513L10.8053 4.04103C12.8916 2.6226 12.3911 3.79082 11.8899 4.2921C10.8053 5.37663 9.01116 7.08712 7.50904 8.46371C6.8421 9.04782 7.17514 9.54824 7.46805 9.79845C8.55259 10.7165 11.515 12.5943 11.6815 12.7199C12.5628 13.3432 14.2963 14.2416 14.5602 12.3441L15.6029 5.79336C15.9368 3.58245 16.2707 1.53806 16.3125 0.953954C16.4381 -0.464479 14.936 0.118778 14.936 0.118778Z" />
	</symbol>
	<symbol id="sc-vk" viewBox="0 0 20 11">
		<path d="M9.4041 10.9488H10.5514C10.5514 10.9488 10.8989 10.913 11.0754 10.7199C11.2409 10.5434 11.2326 10.2152 11.2326 10.2152C11.2326 10.2152 11.2105 8.66803 11.9276 8.44189C12.6336 8.21574 13.5382 9.93391 14.498 10.5958C15.2233 11.095 15.7749 10.9874 15.7749 10.9874L18.3425 10.9488C18.3425 10.9488 19.6856 10.8661 19.0485 9.80705C18.9961 9.72156 18.679 9.0238 17.14 7.59521C15.5294 6.0949 15.7473 6.3376 17.6861 3.74792C18.8665 2.1704 19.3381 1.20513 19.1919 0.794203C19.0513 0.40258 18.1825 0.504622 18.1825 0.504622L15.2922 0.52117C15.2922 0.52117 15.0799 0.493591 14.9199 0.587359C14.7655 0.681128 14.6662 0.899003 14.6662 0.899003C14.6662 0.899003 14.2084 2.12076 13.5961 3.15773C12.3109 5.35027 11.7952 5.4661 11.5856 5.32821C11.0947 5.0138 11.2188 4.05405 11.2188 3.37561C11.2188 1.25202 11.5387 0.366727 10.5928 0.13782C10.2784 0.0605986 10.0467 0.0109563 9.24414 0.00268255C8.21268 -0.00834909 7.33843 0.00544046 6.84476 0.248137C6.51657 0.410853 6.26284 0.769381 6.41729 0.791445C6.60758 0.816266 7.04057 0.907277 7.26948 1.22168C7.56733 1.62433 7.5563 2.53169 7.5563 2.53169C7.5563 2.53169 7.72729 5.03035 7.15916 5.342C6.76754 5.55435 6.23251 5.12136 5.08522 3.13291C4.49778 2.11524 4.05376 0.987256 4.05376 0.987256C4.05376 0.987256 3.96826 0.777655 3.81658 0.667339C3.6318 0.529443 3.37255 0.488075 3.37255 0.488075L0.625675 0.504622C0.625675 0.504622 0.214746 0.515654 0.0630609 0.694918C-0.0720766 0.854877 0.0520293 1.18583 0.0520293 1.18583C0.0520293 1.18583 2.2032 6.23004 4.63568 8.77283C6.86958 11.1033 9.4041 10.9488 9.4041 10.9488Z" />
	</symbol>
	<symbol id="sc-maks" viewBox="0 0 15 15">
		<path fill-rule="evenodd" clip-rule="evenodd" d="M7.66115 14.9573C6.18909 14.9573 5.505 14.7414 4.31589 13.8781C3.56374 14.8493 1.18194 15.6083 1.07808 14.3098C1.07808 13.3349 0.863178 12.5112 0.619625 11.6118C0.329512 10.5039 0 9.27006 0 7.48225C0 3.21236 3.48853 5.72205e-05 7.62175 5.72205e-05C11.7586 5.72205e-05 15 3.37064 15 7.52182C15.0138 11.6088 11.7304 14.9355 7.66115 14.9573ZM7.72204 3.69079C5.70915 3.58648 4.14039 4.98579 3.79297 7.18009C3.50644 8.99668 4.01503 11.209 4.44841 11.3241C4.65615 11.3744 5.17907 10.95 5.505 10.6226C6.04394 10.9965 6.67153 11.2211 7.32448 11.2737C9.41016 11.3745 11.1923 9.77974 11.3323 7.68729C11.4139 5.59042 9.80801 3.81439 7.72204 3.69439L7.72204 3.69079Z" />
	</symbol> 
	<symbol id="arrow-bottom"  viewBox="0 0 10 6"  >
		<path d="M0.500035 0.500026L4.74268 4.74267L8.98532 0.500026"   stroke-linecap="round"/>
	</symbol>
	<symbol id="arrow-left"  viewBox="0 0 21 15" >
		<path d="M20 8.36395C20.5523 8.36395 21 7.91624 21 7.36395C21 6.81167 20.5523 6.36395 20 6.36395L20 7.36395L20 8.36395ZM0.292892 6.65685C-0.0976315 7.04737 -0.0976314 7.68054 0.292893 8.07106L6.65686 14.435C7.04738 14.8255 7.68054 14.8255 8.07107 14.435C8.46159 14.0445 8.46159 13.4113 8.07107 13.0208L2.41421 7.36395L8.07107 1.7071C8.46159 1.31658 8.46159 0.68341 8.07107 0.292886C7.68054 -0.0976385 7.04738 -0.0976384 6.65685 0.292886L0.292892 6.65685ZM20 7.36395L20 6.36395L1 6.36395L1 7.36395L1 8.36395L20 8.36395L20 7.36395Z" />
	</symbol>
	<symbol id="arrow-right" viewBox="0 0 21 15" >
		<path d="M1 8.36395C0.447715 8.36395 -4.82823e-08 7.91624 0 7.36395C4.82823e-08 6.81167 0.447715 6.36395 1 6.36395L1 7.36395L1 8.36395ZM20.7071 6.65685C21.0976 7.04737 21.0976 7.68054 20.7071 8.07106L14.3431 14.435C13.9526 14.8255 13.3195 14.8255 12.9289 14.435C12.5384 14.0445 12.5384 13.4113 12.9289 13.0208L18.5858 7.36395L12.9289 1.7071C12.5384 1.31658 12.5384 0.68341 12.9289 0.292886C13.3195 -0.0976385 13.9526 -0.0976384 14.3431 0.292886L20.7071 6.65685ZM1 7.36395L1 6.36395L20 6.36395L20 7.36395L20 8.36395L1 8.36395L1 7.36395Z" />
	</symbol> 
</svg>
