<svg width="43" height="35" viewBox="0 0 43 35" fill="none" xmlns="http://www.w3.org/2000/svg">
<path d="M21.0248 12.866C24.5776 12.866 27.4578 9.98585 27.4578 6.433C27.4578 2.88015 24.5776 0 21.0248 0C17.4719 0 14.5918 2.88015 14.5918 6.433C14.5918 9.98585 17.4719 12.866 21.0248 12.866Z" fill="#253F73"/>
<path d="M25.8066 13.7252C24.5597 14.7748 23.0336 15.2352 21.0256 15.2352C19.0206 15.2352 17.6732 14.7823 16.2267 13.705C11.7273 14.526 10.1875 18.9409 10.1875 22.3801V23.8102C10.1875 25.12 10.8441 26.3491 11.9467 27.0556C12.2869 27.2735 12.6865 27.4952 13.1529 27.7087C13.4625 31.7811 16.8752 35 21.0255 35C25.1759 35 28.5886 31.781 28.8981 27.7085C29.3424 27.5051 29.7262 27.2942 30.0558 27.0864C31.1806 26.3761 31.8636 25.1402 31.8636 23.8096V22.3801C31.8636 19.2141 30.4779 14.6162 25.8066 13.7252ZM21.0255 33.6328C17.4257 33.6328 14.4971 30.7042 14.4971 27.1045C14.4971 23.5048 17.4257 20.5762 21.0255 20.5762C24.6252 20.5762 27.5537 23.5048 27.5537 27.1045C27.5537 30.7042 24.6252 33.6328 21.0255 33.6328Z" fill="#253F73"/>
<path d="M33.9974 9.74451C36.6366 9.74451 38.7761 7.60503 38.7761 4.96585C38.7761 2.32667 36.6366 0.187195 33.9974 0.187195C31.3582 0.187195 29.2188 2.32667 29.2188 4.96585C29.2188 7.60503 31.3582 9.74451 33.9974 9.74451Z" fill="#253F73"/>
<path d="M37.5508 10.3829C36.6242 11.1622 35.4904 11.5042 33.999 11.5042C32.5095 11.5042 31.5089 11.1678 30.4342 10.368C29.0741 10.6161 28.0778 11.3065 27.375 12.2101C29.4366 12.9017 31.0941 14.2929 32.2135 16.2861C33.3578 18.3242 33.6576 20.4598 33.7167 21.8174C33.81 21.8187 33.9039 21.8193 33.999 21.8193C37.4942 21.8193 39.549 21.0388 40.707 20.3081C41.5422 19.7801 42.0498 18.8621 42.0498 17.8739V16.8122C42.0498 14.4602 41.0205 11.0446 37.5508 10.3829Z" fill="#253F73"/>
<path d="M8.05015 9.74451C10.6893 9.74451 12.8288 7.60503 12.8288 4.96585C12.8288 2.32667 10.6893 0.187195 8.05015 0.187195C5.41096 0.187195 3.27148 2.32667 3.27148 4.96585C3.27148 7.60503 5.41096 9.74451 8.05015 9.74451Z" fill="#253F73"/>
<path d="M1.34278 20.3081C2.5008 21.0388 4.55557 21.8193 8.05074 21.8193C8.14587 21.8193 8.23978 21.8187 8.33308 21.8174C8.39218 20.4598 8.69193 18.3242 9.83625 16.2861C10.9557 14.2929 12.6131 12.9017 14.6748 12.2101C13.972 11.3065 12.9757 10.6161 11.6155 10.368C10.5409 11.1678 9.54022 11.5042 8.05074 11.5042C6.55938 11.5042 5.42565 11.1622 4.49897 10.3829C1.02929 11.0446 0 14.4602 0 16.8123V17.8739C5.08996e-05 18.8621 0.507571 19.7801 1.34278 20.3081Z" fill="#253F73"/>
<path d="M24.2897 26.4209H21.7084V23.8396C21.7084 23.4621 21.4023 23.156 21.0248 23.156C20.6472 23.156 20.3411 23.4621 20.3411 23.8396V26.4209H17.7598C17.3823 26.4209 17.0762 26.727 17.0762 27.1045C17.0762 27.482 17.3823 27.7881 17.7598 27.7881H20.3411V30.3694C20.3411 30.7469 20.6472 31.053 21.0248 31.053C21.4023 31.053 21.7084 30.7469 21.7084 30.3694V27.7881H24.2897C24.6672 27.7881 24.9733 27.482 24.9733 27.1045C24.9733 26.727 24.6672 26.4209 24.2897 26.4209Z" fill="#253F73"/>
</svg>
