<svg width="15" height="15" viewBox="0 0 15 15" fill="none" xmlns="http://www.w3.org/2000/svg">
<path fill-rule="evenodd" clip-rule="evenodd" d="M7.66115 14.9572C6.18909 14.9572 5.505 14.7414 4.31589 13.878C3.56374 14.8493 1.18194 15.6083 1.07808 14.3097C1.07808 13.3349 0.863178 12.5111 0.619625 11.6118C0.329512 10.5039 0 9.27001 0 7.48219C0 3.21231 3.48853 0 7.62175 0C11.7586 0 15 3.37058 15 7.52176C15.0138 11.6087 11.7304 14.9354 7.66115 14.9572ZM7.72204 3.69074C5.70915 3.58642 4.14039 4.98573 3.79297 7.18003C3.50644 8.99662 4.01503 11.2089 4.44841 11.324C4.65615 11.3744 5.17907 10.9499 5.505 10.6226C6.04394 10.9965 6.67153 11.2211 7.32448 11.2737C9.41016 11.3744 11.1923 9.77968 11.3323 7.68724C11.4139 5.59037 9.80801 3.81433 7.72204 3.69433L7.72204 3.69074Z" fill="white"/>
</svg>
