<svg width="20" height="11" viewBox="0 0 20 11" fill="none" xmlns="http://www.w3.org/2000/svg">
<path d="M9.4041 10.9488H10.5514C10.5514 10.9488 10.8989 10.913 11.0754 10.7199C11.2409 10.5434 11.2326 10.2152 11.2326 10.2152C11.2326 10.2152 11.2105 8.66803 11.9276 8.44189C12.6336 8.21574 13.5382 9.93391 14.498 10.5958C15.2233 11.095 15.7749 10.9874 15.7749 10.9874L18.3425 10.9488C18.3425 10.9488 19.6856 10.8661 19.0485 9.80705C18.9961 9.72156 18.679 9.0238 17.14 7.59521C15.5294 6.0949 15.7473 6.3376 17.6861 3.74792C18.8665 2.1704 19.3381 1.20513 19.1919 0.794203C19.0513 0.40258 18.1825 0.504622 18.1825 0.504622L15.2922 0.52117C15.2922 0.52117 15.0799 0.493591 14.9199 0.587359C14.7655 0.681128 14.6662 0.899003 14.6662 0.899003C14.6662 0.899003 14.2084 2.12076 13.5961 3.15773C12.3109 5.35027 11.7952 5.4661 11.5856 5.32821C11.0947 5.0138 11.2188 4.05405 11.2188 3.37561C11.2188 1.25202 11.5387 0.366727 10.5928 0.13782C10.2784 0.0605986 10.0467 0.0109563 9.24414 0.00268255C8.21268 -0.00834909 7.33843 0.00544046 6.84476 0.248137C6.51657 0.410853 6.26284 0.769381 6.41729 0.791445C6.60758 0.816266 7.04057 0.907277 7.26948 1.22168C7.56733 1.62433 7.5563 2.53169 7.5563 2.53169C7.5563 2.53169 7.72729 5.03035 7.15916 5.342C6.76754 5.55435 6.23251 5.12136 5.08522 3.13291C4.49778 2.11524 4.05376 0.987256 4.05376 0.987256C4.05376 0.987256 3.96826 0.777655 3.81658 0.667339C3.6318 0.529443 3.37255 0.488075 3.37255 0.488075L0.625675 0.504622C0.625675 0.504622 0.214746 0.515654 0.0630609 0.694918C-0.0720766 0.854877 0.0520293 1.18583 0.0520293 1.18583C0.0520293 1.18583 2.2032 6.23004 4.63568 8.77283C6.86958 11.1033 9.4041 10.9488 9.4041 10.9488Z" fill="white"/>
</svg>
