<svg width="17" height="14" viewBox="0 0 17 14" fill="none" xmlns="http://www.w3.org/2000/svg">
<path d="M14.936 0.118778C12.7831 1.01117 3.55178 4.83522 1.00099 5.87705C-0.710349 6.54485 0.29135 7.16995 0.29135 7.16995C0.29135 7.16995 1.75163 7.67123 3.00354 8.04612C4.25545 8.42186 4.92239 8.00513 4.92239 8.00513L10.8053 4.04103C12.8916 2.6226 12.3911 3.79082 11.8899 4.2921C10.8053 5.37663 9.01116 7.08712 7.50904 8.46371C6.8421 9.04782 7.17514 9.54824 7.46805 9.79845C8.55259 10.7165 11.515 12.5943 11.6815 12.7199C12.5628 13.3432 14.2963 14.2416 14.5602 12.3441L15.6029 5.79336C15.9368 3.58245 16.2707 1.53806 16.3125 0.953954C16.4381 -0.464479 14.936 0.118778 14.936 0.118778Z" fill="white"/>
</svg>
